solid OpenSCAD_Model
  facet normal -0 0 1
    outer loop
      vertex 4 5 4
      vertex 24 2 4
      vertex 24 5 4
    endloop
  endfacet
  facet normal 0 0 1
    outer loop
      vertex 24 2 4
      vertex 4 5 4
      vertex 4 2 4
    endloop
  endfacet
  facet normal 0 0 -1
    outer loop
      vertex 4 2 3
      vertex 24 5 3
      vertex 24 2 3
    endloop
  endfacet
  facet normal -0 0 -1
    outer loop
      vertex 24 5 3
      vertex 4 2 3
      vertex 4 5 3
    endloop
  endfacet
  facet normal 0 -1 0
    outer loop
      vertex 4 2 3
      vertex 24 2 4
      vertex 4 2 4
    endloop
  endfacet
  facet normal 0 -1 -0
    outer loop
      vertex 24 2 4
      vertex 4 2 3
      vertex 24 2 3
    endloop
  endfacet
  facet normal 1 -0 0
    outer loop
      vertex 24 2 4
      vertex 24 5 3
      vertex 24 5 4
    endloop
  endfacet
  facet normal 1 0 0
    outer loop
      vertex 24 5 3
      vertex 24 2 4
      vertex 24 2 3
    endloop
  endfacet
  facet normal 0 1 -0
    outer loop
      vertex 24 5 3
      vertex 4 5 4
      vertex 24 5 4
    endloop
  endfacet
  facet normal 0 1 0
    outer loop
      vertex 4 5 4
      vertex 24 5 3
      vertex 4 5 3
    endloop
  endfacet
  facet normal -1 0 0
    outer loop
      vertex 4 2 3
      vertex 4 5 4
      vertex 4 5 3
    endloop
  endfacet
  facet normal -1 -0 0
    outer loop
      vertex 4 5 4
      vertex 4 2 3
      vertex 4 2 4
    endloop
  endfacet
endsolid OpenSCAD_Model
